<svg xmlns="http://www.w3.org/2000/svg" fill="none" viewBox="0 0 30 30">
  <g fill="#fff" clip-path="url(#a)">
    <path d="M21.205 23.52a.625.625 0 0 1-.445-.188.619.619 0 0 1 .017-.873l8.18-7.904a.619.619 0 0 1 .873.017.619.619 0 0 1-.017.873l-8.18 7.905a.639.639 0 0 1-.428.17Z"/>
    <path d="M29.385 15.615a.608.608 0 0 1-.428-.175l-8.186-7.9a.619.619 0 0 1-.017-.873.619.619 0 0 1 .873-.018l8.18 7.905a.619.619 0 0 1 .017.873.59.59 0 0 1-.44.187ZM8.795 23.52a.608.608 0 0 1-.428-.176l-8.18-7.899a.619.619 0 0 1-.017-.873.619.619 0 0 1 .873-.017l8.18 7.904a.619.619 0 0 1 .017.873.603.603 0 0 1-.445.188Z"/>
    <path d="M.615 15.615a.626.626 0 0 1-.445-.187.619.619 0 0 1 .017-.873l8.18-7.905a.619.619 0 0 1 .873.018.619.619 0 0 1-.017.873l-8.174 7.904a.616.616 0 0 1-.434.17Zm11.444 10.524a.617.617 0 0 1-.592-.785l5.877-21.041a.618.618 0 1 1 1.19.333l-5.878 21.041a.619.619 0 0 1-.597.452Z"/>
  </g>
  <defs>
    <clipPath id="a">
      <path fill="#fff" d="M0 0h30v30H0z"/>
    </clipPath>
  </defs>
</svg>
