<svg xmlns="http://www.w3.org/2000/svg" fill="none" viewBox="0 0 30 30">
  <path fill="#fff" d="M19.5 4.125c-1.75 0-3.25.625-4.5 1.875l-2.75 2.75c-.5.5-.5 1.25 0 1.75s1.25.5 1.75 0l2.75-2.75c1.5-1.5 4-1.5 5.5 0 .75.75 1.125 1.75 1.125 2.75s-.375 2-1.125 2.75L19.5 16c-.5.5-.5 1.25 0 1.75.25.25.625.375.875.375S21 18 21.25 17.75L24 15c1.25-1.25 1.875-2.75 1.875-4.5S25.25 7.25 24 6s-2.75-1.875-4.5-1.875Zm-9 10c.5-.5.5-1.25 0-1.75s-1.25-.5-1.75 0L6 15c-1.25 1.25-1.875 2.75-1.875 4.5S4.75 22.75 6 24s2.75 1.875 4.5 1.875S13.75 25.25 15 24l2.75-2.75c.5-.5.5-1.25 0-1.75s-1.25-.5-1.75 0l-2.75 2.75c-1.5 1.5-4 1.5-5.5 0a3.878 3.878 0 0 1-1.125-2.75c0-1 .375-2 1.125-2.75l2.75-2.625Z"/>
  <path fill="#fff" d="M11.375 18.625c.25.25.625.375.875.375s.625-.125.875-.375L18.5 13.25c.5-.5.5-1.25 0-1.75s-1.25-.5-1.75 0l-5.375 5.375c-.5.375-.5 1.25 0 1.75Z"/>
</svg>
